<svg xmlns="http://www.w3.org/2000/svg" width="130" height="30"><path fill="#0A7FF2" d="M78.225 15V4.131h-4.159V15l-5.724 15H72.5l3.656-9.577L79.842 30H84zm9.373-10.021L84.543 30h4.182l3.054-25.021z"/><path fill="#0A7FF2" d="M83.951 0H68.342v2.065h.006v13.771c0 .584-.473 1.057-1.055 1.057h5.209V2.065h7.293v14.816h2.545a1.61 1.61 0 0 0 1.609-1.609V2.065h.002V1.018A1.054 1.054 0 0 1 85.004 0h-1.053zm12.588 1.057c0-.583.473-1.057 1.057-1.057h-5.227v2.065h-7.291v1.486h7.291v24.962h-1.006V30h3.869c.723 0 1.307-.722 1.307-1.61V3.552h1.074V2.065h-1.074V1.057zm-78.279 0C18.26.474 18.733 0 19.316 0h-6.19v13.443L1.05 30h5.135l9.508-13.036L25.202 30h5.135L18.26 13.443V1.057zM4.582 14.014a1.61 1.61 0 0 0 1.609-1.61V3.366c0-.583.473-1.057 1.056-1.057H1.056v10.647c0 .584-.473 1.057-1.056 1.057h4.582z"/><path fill="#0A7FF2" d="M25.206 2.31v10.647c0 .584-.473 1.057-1.056 1.057h4.581a1.61 1.61 0 0 0 1.609-1.61V3.366c0-.583.473-1.057 1.056-1.057h-6.19z"/><path fill="#FF7043" d="M45.917 5.226l-5.269 3.06.004-2.39 4.229-2.457zM63.375 0L49.097 8.293l-1.036-1.786L59.267 0"/><path fill="#FF7043" d="M49.084 8.287l-5.268-3.06 1.037-1.787 5.269 3.061z"/><path fill="#0A7FF2" d="M63.685 24.548v-1.486H51.61v-4.073h12.075v-1.486H51.61v-2.729c0-.583.473-1.057 1.056-1.057h-6.191v3.785h-7.204l1.527-3.201a1.256 1.256 0 0 1 1.062-.584h-4.941l-2.513 5.271h3.141c.065 0 .13-.006.195-.014v.014h8.733v4.073H34.399v1.486h12.076v3.966H34.399V30h29.286v-1.486H51.61v-3.966h12.075zM35.78 12.285v.004h26.296a1.61 1.61 0 0 0 1.609-1.61v-9.54l-5.135 2.97v6.694H39.541V1.486h17.173L59.28 0H34.406v11.229c0 .584-.473 1.057-1.056 1.057h2.43zM111.443 0H130v1.486h-18.557zm6.703 13.122h-6.71v1.486h6.71v13.906h-6.697V30h18.528v-1.486h-6.696V14.608h6.711v-1.486h-6.711zM130 1.486h-5.135l-13.422 10.208h5.135l4.143-3.151 4.144 3.151H130l-6.711-5.104zM110.645 0h-4.951l-4.553 9.539.162-.344a1.255 1.255 0 0 1-1.104.656h4.936l-4.211 8.816.117-.245a1.255 1.255 0 0 1-1.104.656h9.652v-1.486h-3.994l3.686-7.719a1.254 1.254 0 0 1 1.098-.646h-4.934l4.371-9.155-.277.584c.213-.39.627-.656 1.106-.656m-10.194 30h.793l.313-.656a1.26 1.26 0 0 1-1.106.656"/><path fill="#0A7FF2" d="M109.586 21.183h-4.154L101.244 30h3.141c.621 0 1.188-.357 1.453-.919l3.453-7.271a1.26 1.26 0 0 1 1.088-.627h-.793z"/></svg>